<svg width="469" height="86" viewBox="0 0 469 86" fill="none" xmlns="http://www.w3.org/2000/svg">
<path d="M60.9388 38.7734H58.8709C57.9936 38.7734 57.3613 38.5513 56.9739 38.1069C56.5866 37.6512 56.3929 37.0531 56.3929 36.3125C56.3929 34.6719 57.6176 33.8516 60.0672 33.8516C62.3686 33.8516 64.1004 34.1934 65.2625 34.877L64.2713 35.6289C63.4738 35.2643 62.0724 35.082 60.0672 35.082C59.0874 35.082 58.4266 35.1903 58.0848 35.4067C57.7544 35.6232 57.5892 35.9251 57.5892 36.3125C57.5892 36.6999 57.6803 37.0018 57.8626 37.2183C58.0449 37.4347 58.381 37.543 58.8709 37.543H60.99C62.5281 37.543 63.9124 37.805 65.1429 38.3291C66.3847 38.8532 67.4044 39.571 68.202 40.4824C68.9995 41.3825 69.609 42.425 70.0306 43.6099C70.4521 44.7834 70.6629 46.0423 70.6629 47.3867C70.6629 48.4805 70.5091 49.5173 70.2015 50.4971C69.8938 51.4769 69.4267 52.377 68.8001 53.1973C68.1849 54.0176 67.4386 54.7297 66.5613 55.3335C65.6954 55.9259 64.6587 56.3874 63.451 56.7178C62.2547 57.0596 60.9559 57.2305 59.5545 57.2305C57.3556 57.2305 55.2934 56.8944 53.368 56.2222C51.4539 55.5614 49.8589 54.6328 48.5828 53.4365L49.574 52.7017C50.7361 53.7498 52.1888 54.5645 53.9319 55.1455C55.6865 55.7152 57.5607 56 59.5545 56C61.1154 56 62.5224 55.7778 63.7757 55.3335C65.0403 54.8778 66.0771 54.2568 66.886 53.4707C67.7063 52.6846 68.333 51.7731 68.7659 50.7363C69.2103 49.6995 69.4324 48.583 69.4324 47.3867C69.4324 45.8031 69.1134 44.3732 68.4754 43.0972C67.8374 41.8097 66.8632 40.7673 65.553 39.9697C64.2542 39.1722 62.7161 38.7734 60.9388 38.7734ZM58.8709 40.0039H60.8191C63.132 40.0039 64.9378 40.7103 66.2366 42.123C67.5468 43.5358 68.202 45.2904 68.202 47.3867C68.202 49.5173 67.4443 51.2832 65.929 52.6846C64.4137 54.0745 62.2889 54.7695 59.5545 54.7695C57.7316 54.7695 56.0283 54.5189 54.4446 54.0176C52.861 53.5163 51.545 52.8099 50.4969 51.8984L51.4539 51.1294C52.3881 51.8927 53.5617 52.4852 54.9744 52.9067C56.3986 53.3283 57.9253 53.5391 59.5545 53.5391C61.9585 53.5391 63.7928 52.9637 65.0574 51.813C66.3335 50.6623 66.9715 49.1868 66.9715 47.3867C66.9715 45.6094 66.436 44.1396 65.365 42.9775C64.3055 41.8154 62.7845 41.2344 60.802 41.2344H58.8709C57.2075 41.2344 55.9599 40.7786 55.1282 39.8672C54.2965 38.9557 53.8807 37.7708 53.8807 36.3125C53.8807 34.8542 54.3934 33.6693 55.4187 32.7578C56.4555 31.8464 58.005 31.3906 60.0672 31.3906C61.5141 31.3906 62.8585 31.5615 64.1004 31.9033C65.3422 32.2337 66.3676 32.7122 67.1766 33.3389L66.2024 34.0908C64.7783 33.111 62.7332 32.6211 60.0672 32.6211C58.3468 32.6211 57.0879 32.9629 56.2903 33.6465C55.5042 34.3187 55.1111 35.2074 55.1111 36.3125C55.1111 37.429 55.4017 38.3234 55.9827 38.9956C56.5752 39.6678 57.5379 40.0039 58.8709 40.0039ZM58.8709 42.4648H60.7508C62.4142 42.4648 63.6617 42.9263 64.4935 43.8491C65.3252 44.772 65.741 45.9512 65.741 47.3867C65.741 48.8451 65.2226 50.0299 64.1858 50.9414C63.1604 51.8529 61.6167 52.3086 59.5545 52.3086C58.1075 52.3086 56.7575 52.1434 55.5042 51.813C54.2623 51.4712 53.2369 50.987 52.428 50.3604L53.4021 49.6084C54.8263 50.5882 56.8771 51.0781 59.5545 51.0781C61.2749 51.0781 62.5281 50.742 63.3143 50.0698C64.1118 49.3862 64.5105 48.4919 64.5105 47.3867C64.5105 46.2816 64.2143 45.3929 63.6219 44.7207C63.0294 44.0371 62.0667 43.6953 60.7337 43.6953H58.8709C56.5353 43.6953 54.7067 43.0003 53.3851 41.6104C52.0748 40.209 51.4197 38.443 51.4197 36.3125C51.4197 34.182 52.1774 32.4217 53.6927 31.0317C55.208 29.6304 57.3328 28.9297 60.0672 28.9297C61.8901 28.9297 63.5877 29.1803 65.16 29.6816C66.7436 30.1829 68.0595 30.8893 69.1077 31.8008L68.1507 32.5698C67.2164 31.8065 66.0429 31.214 64.6302 30.7925C63.2174 30.3709 61.6964 30.1602 60.0672 30.1602C57.6632 30.1602 55.8232 30.7355 54.5472 31.8862C53.2825 33.0369 52.6502 34.5124 52.6502 36.3125C52.6502 38.1012 53.1857 39.5767 54.2566 40.7388C55.3276 41.8895 56.8657 42.4648 58.8709 42.4648ZM58.8709 44.9258H60.7508C61.6281 44.9258 62.2604 45.1536 62.6478 45.6094C63.0351 46.0651 63.2288 46.6576 63.2288 47.3867C63.2288 49.0273 62.004 49.8477 59.5545 49.8477C57.2417 49.8477 55.5042 49.5059 54.3421 48.8223L55.3333 48.0703C56.1308 48.4349 57.5379 48.6172 59.5545 48.6172C60.5343 48.6172 61.1894 48.509 61.5198 48.2925C61.8616 48.076 62.0325 47.7741 62.0325 47.3867C62.0325 47.0107 61.9357 46.7145 61.742 46.498C61.5597 46.2702 61.2179 46.1562 60.7166 46.1562H58.8709C57.2986 46.1562 55.8745 45.8999 54.5984 45.3872C53.3338 44.8745 52.2913 44.1681 51.471 43.2681C50.6621 42.368 50.0411 41.3255 49.6082 40.1406C49.1753 38.9557 48.9588 37.6797 48.9588 36.3125C48.9588 35.2188 49.1126 34.182 49.4202 33.2021C49.7278 32.2223 50.1893 31.3223 50.8045 30.502C51.4311 29.6816 52.1774 28.9753 53.0433 28.3828C53.9205 27.779 54.9573 27.3118 56.1536 26.9814C57.3613 26.6396 58.6658 26.4688 60.0672 26.4688C62.2661 26.4688 64.3226 26.8049 66.2366 27.4771C68.1507 28.1379 69.7457 29.0664 71.0218 30.2627L70.0306 30.9976C68.8685 29.9494 67.4158 29.1405 65.6727 28.5708C63.9295 27.9897 62.061 27.6992 60.0672 27.6992C58.5063 27.6992 57.0936 27.9271 55.8289 28.3828C54.5756 28.8271 53.5389 29.4424 52.7186 30.2285C51.9096 31.0146 51.283 31.9261 50.8387 32.9629C50.4057 33.9997 50.1893 35.1162 50.1893 36.3125C50.1893 37.9189 50.514 39.3659 51.1634 40.6533C51.8128 41.9408 52.804 42.9775 54.137 43.7637C55.47 44.5384 57.048 44.9258 58.8709 44.9258ZM104.048 49.2178C104.253 49.2275 104.502 49.2324 104.795 49.2324C105.088 49.2324 105.332 49.2275 105.527 49.2178C105.733 49.1982 105.942 49.1592 106.157 49.1006C106.372 49.0322 106.543 48.9443 106.67 48.8369C106.797 48.7295 106.9 48.5781 106.978 48.3828C107.066 48.1777 107.109 47.9336 107.109 47.6504V34.9062H108.164V47.6504C108.164 49.4082 107.041 50.2871 104.795 50.2871C103.662 50.2871 102.822 50.0723 102.275 49.6426C102.197 50.0234 102.105 50.3604 101.997 50.6533C102.739 51.1123 103.672 51.3418 104.795 51.3418C106.104 51.3418 107.168 51.0391 107.988 50.4336C108.809 49.8184 109.219 48.8906 109.219 47.6504V34.9062H110.274V47.6504C110.274 49.1836 109.756 50.3604 108.721 51.1807C107.695 51.9912 106.387 52.3965 104.795 52.3965C103.555 52.3965 102.49 52.1426 101.602 51.6348C101.455 51.9473 101.284 52.2451 101.089 52.5283C102.153 53.1436 103.389 53.4512 104.795 53.4512C105.703 53.4512 106.548 53.3242 107.329 53.0703C108.12 52.8164 108.814 52.4502 109.409 51.9717C110.005 51.4932 110.474 50.8828 110.816 50.1406C111.157 49.3984 111.328 48.5684 111.328 47.6504V34.9062H112.383V47.6504C112.383 49.0566 112.036 50.2871 111.343 51.3418C110.659 52.3965 109.746 53.1875 108.604 53.7148C107.471 54.2422 106.201 54.5059 104.795 54.5059C103.154 54.5059 101.709 54.1299 100.459 53.3779C100.186 53.6904 99.9366 53.9443 99.712 54.1396C101.167 55.0869 102.861 55.5605 104.795 55.5605C106.387 55.5605 107.832 55.248 109.131 54.623C110.43 53.998 111.47 53.0801 112.251 51.8691C113.042 50.6484 113.438 49.2422 113.438 47.6504V34.9062H114.492V47.6504C114.492 48.998 114.233 50.2383 113.716 51.3711C113.208 52.5039 112.515 53.4512 111.636 54.2129C110.767 54.9746 109.741 55.5654 108.56 55.9854C107.378 56.4053 106.123 56.6152 104.795 56.6152C102.471 56.6152 100.483 56.0195 98.8331 54.8281C97.1241 56.0195 95.1075 56.6152 92.7833 56.6152C91.4552 56.6152 90.2003 56.4053 89.0187 55.9854C87.837 55.5654 86.8067 54.9746 85.9278 54.2129C85.0587 53.4512 84.3653 52.5039 83.8478 51.3711C83.3399 50.2383 83.086 48.998 83.086 47.6504V34.9062H84.1407V47.6504C84.1407 48.8516 84.3653 49.9551 84.8145 50.9609C85.2735 51.9668 85.8937 52.8018 86.6749 53.4658C87.4562 54.1299 88.3692 54.6475 89.4142 55.0186C90.4688 55.3799 91.5919 55.5605 92.7833 55.5605C94.336 55.5605 95.7765 55.209 97.1046 54.5059C98.4327 53.793 99.4825 52.8311 100.254 51.6201C101.035 50.3994 101.426 49.0762 101.426 47.6504V34.9062H102.481V47.6504C102.481 47.9336 102.52 48.1777 102.598 48.3828C102.686 48.5781 102.793 48.7295 102.92 48.8369C103.047 48.9443 103.218 49.0322 103.433 49.1006C103.648 49.1592 103.853 49.1982 104.048 49.2178ZM96.1524 34.9062V47.6504C96.1524 49.4082 95.0294 50.2871 92.7833 50.2871C90.5372 50.2871 89.4142 49.4082 89.4142 47.6504V34.9062H90.4688V47.6504C90.4688 47.9336 90.5079 48.1777 90.586 48.3828C90.6739 48.5781 90.7813 48.7295 90.9083 48.8369C91.0353 48.9443 91.2062 49.0322 91.421 49.1006C91.6358 49.1592 91.8409 49.1982 92.0362 49.2178C92.2413 49.2275 92.4903 49.2324 92.7833 49.2324C93.0763 49.2324 93.3204 49.2275 93.5157 49.2178C93.7208 49.1982 93.9308 49.1592 94.1456 49.1006C94.3604 49.0322 94.5313 48.9443 94.6583 48.8369C94.7853 48.7295 94.8878 48.5781 94.9659 48.3828C95.0538 48.1777 95.0978 47.9336 95.0978 47.6504V34.9062H96.1524ZM98.2618 34.9062V47.6504C98.2618 49.1836 97.7442 50.3604 96.7091 51.1807C95.6837 51.9912 94.3751 52.3965 92.7833 52.3965C91.1915 52.3965 89.878 51.9912 88.8429 51.1807C87.8175 50.3604 87.3048 49.1836 87.3048 47.6504V34.9062H88.3595V47.6504C88.3595 48.8906 88.7696 49.8184 89.5899 50.4336C90.4103 51.0391 91.4747 51.3418 92.7833 51.3418C94.0919 51.3418 95.1563 51.0391 95.9767 50.4336C96.797 49.8184 97.2071 48.8906 97.2071 47.6504V34.9062H98.2618ZM100.371 34.9062V47.6504C100.371 49.0566 100.025 50.2871 99.3312 51.3418C98.6476 52.3965 97.7345 53.1875 96.5919 53.7148C95.4591 54.2422 94.1895 54.5059 92.7833 54.5059C91.377 54.5059 90.1026 54.2422 88.9601 53.7148C87.8272 53.1875 86.9142 52.3965 86.2208 51.3418C85.5372 50.2871 85.1954 49.0566 85.1954 47.6504V34.9062H86.2501V47.6504C86.2501 48.5684 86.421 49.3984 86.7628 50.1406C87.1046 50.8828 87.5733 51.4932 88.169 51.9717C88.7647 52.4502 89.4532 52.8164 90.2345 53.0703C91.0255 53.3242 91.8751 53.4512 92.7833 53.4512C93.6915 53.4512 94.5362 53.3242 95.3175 53.0703C96.1085 52.8164 96.8019 52.4502 97.3976 51.9717C97.9933 51.4932 98.462 50.8828 98.8038 50.1406C99.1456 49.3984 99.3165 48.5684 99.3165 47.6504V34.9062H100.371ZM131.969 56H130.914V34.9062H131.969V56ZM129.86 56H128.805V34.9062H129.86V56ZM127.75 56H126.696V34.9062H127.75V56ZM134.078 50.7266H144.171V51.7812H134.078V52.8359H144.171V53.8906H134.078V54.9453H144.171V56H133.024V34.9062H144.171V35.9609H134.078V37.0156H144.171V38.0703H134.078V39.125H144.171V40.1797H134.078V42.8018H143.585V43.8564H134.078V44.9111H143.585V45.9658H134.078V47.0205H143.585V48.0752H134.078V50.7266ZM161.531 56H160.476V34.9062H161.531V56ZM159.421 56H158.367V34.9062H159.421V56ZM157.312 56H156.257V34.9062H157.312V56ZM163.64 50.7266H173.733V51.7812H163.64V52.8359H173.733V53.8906H163.64V54.9453H173.733V56H162.585V34.9062H173.733V35.9609H163.64V37.0156H173.733V38.0703H163.64V39.125H173.733V40.1797H163.64V42.8018H173.147V43.8564H163.64V44.9111H173.147V45.9658H163.64V47.0205H173.147V48.0752H163.64V50.7266ZM189.554 40.751H190.609V56H189.554V40.751ZM185.336 35.9609V34.9062H201.156V35.9609H185.336ZM185.336 38.0703V37.0156H201.156V38.0703H185.336ZM185.336 40.1797V39.125H201.156V40.1797H185.336ZM195.883 40.751H196.937V56H195.883V40.751ZM193.773 40.751H194.828V56H193.773V40.751ZM191.664 40.751H192.718V56H191.664V40.751ZM283.279 46.1392C283.279 45.6948 283.142 45.3986 282.868 45.2505C282.606 45.1024 282.219 45.0283 281.706 45.0283H273.777V43.7979H281.706C283.575 43.7979 284.509 44.5783 284.509 46.1392C284.509 47.0164 284.253 47.6488 283.74 48.0361C283.227 48.4235 282.549 48.6172 281.706 48.6172H273.777V47.3867H281.706C282.754 47.3867 283.279 46.9709 283.279 46.1392ZM273.093 56H271.863V35.082H281.706C282.481 35.082 283.142 35.3213 283.689 35.7998C284.236 36.2669 284.509 36.8537 284.509 37.5601C284.509 38.4943 284.253 39.1722 283.74 39.5938C283.227 40.0039 282.549 40.209 281.706 40.209H273.777V38.9785H281.706C282.754 38.9785 283.279 38.5057 283.279 37.5601C283.279 37.1727 283.13 36.8708 282.834 36.6543C282.538 36.4264 282.162 36.3125 281.706 36.3125H273.093V56ZM273.777 41.4395H281.706C282.834 41.4395 283.786 41.1034 284.56 40.4312C285.346 39.7476 285.739 38.7905 285.739 37.5601C285.739 36.5688 285.329 35.703 284.509 34.9624C283.7 34.2218 282.766 33.8516 281.706 33.8516H270.632V56H269.402V32.6211H281.706C283.108 32.6211 284.332 33.1167 285.381 34.1079C286.44 35.0877 286.97 36.2384 286.97 37.5601C286.97 38.5968 286.725 39.5026 286.235 40.2773C285.757 41.0521 285.107 41.6502 284.287 42.0718C286.076 42.7098 286.97 44.0086 286.97 45.9683C286.97 47.5177 286.457 48.7596 285.432 49.6938C284.406 50.6167 283.165 51.0781 281.706 51.0781H273.777V49.8477H281.706C282.834 49.8477 283.786 49.5116 284.56 48.8394C285.346 48.1558 285.739 47.1987 285.739 45.9683C285.739 45.1366 285.443 44.4017 284.851 43.7637C284.258 43.1257 283.387 42.7554 282.236 42.6528C282.122 42.6642 281.946 42.6699 281.706 42.6699H273.777V41.4395ZM289.431 37.5601C289.431 39.1551 288.867 40.5964 287.739 41.8838C288.867 43.137 289.431 44.4985 289.431 45.9683C289.431 47.3924 289.072 48.6912 288.354 49.8647C287.648 51.0269 286.702 51.9326 285.517 52.582C284.344 53.2201 283.073 53.5391 281.706 53.5391H273.777V52.3086H281.706C283.484 52.3086 285.01 51.7161 286.286 50.5312C287.562 49.335 288.2 47.814 288.2 45.9683C288.2 45.3075 288.029 44.5783 287.688 43.7808C287.357 42.9718 286.896 42.3566 286.303 41.9351C287.568 40.7502 288.2 39.2918 288.2 37.5601C288.2 35.8966 287.551 34.4554 286.252 33.2363C284.953 32.0059 283.438 31.3906 281.706 31.3906H268.171V56H266.941V30.1602H281.706C283.062 30.1602 284.332 30.4963 285.517 31.1685C286.714 31.8293 287.665 32.735 288.371 33.8857C289.078 35.0251 289.431 36.2498 289.431 37.5601ZM289.14 41.9521C290.154 40.5964 290.661 39.1323 290.661 37.5601C290.661 36.022 290.251 34.5921 289.431 33.2705C288.622 31.9375 287.528 30.8836 286.15 30.1089C284.771 29.3228 283.29 28.9297 281.706 28.9297H265.71V56H264.48V27.6992H281.706C283.506 27.6992 285.187 28.1436 286.748 29.0322C288.32 29.9209 289.568 31.1286 290.49 32.6553C291.425 34.1706 291.892 35.8055 291.892 37.5601C291.892 39.2349 291.419 40.7046 290.473 41.9692C291.419 43.2795 291.892 44.6125 291.892 45.9683C291.892 47.495 291.618 48.8963 291.071 50.1724C290.525 51.437 289.784 52.4909 288.85 53.334C287.927 54.1771 286.85 54.8322 285.62 55.2993C284.389 55.7664 283.085 56 281.706 56H273.777V54.7695H281.706C282.903 54.7695 284.048 54.5474 285.141 54.103C286.235 53.6473 287.186 53.0321 287.995 52.2573C288.804 51.4826 289.448 50.5483 289.926 49.4546C290.416 48.3608 290.661 47.1987 290.661 45.9683C290.661 45.4214 290.53 44.7663 290.268 44.0029C290.018 43.2282 289.642 42.5446 289.14 41.9521ZM313.634 42.4795C312.814 43.2998 312.403 44.291 312.403 45.4531C312.403 46.6152 312.814 47.6113 313.634 48.4414C314.464 49.2617 315.46 49.6719 316.622 49.6719C317.784 49.6719 318.776 49.2617 319.596 48.4414C320.426 47.6113 320.841 46.6152 320.841 45.4531C320.841 44.291 320.426 43.2998 319.596 42.4795C318.776 41.6494 317.784 41.2344 316.622 41.2344C315.46 41.2344 314.464 41.6494 313.634 42.4795ZM312.887 49.1885C311.861 48.1533 311.349 46.9082 311.349 45.4531C311.349 43.998 311.861 42.7578 312.887 41.7324C313.922 40.6973 315.167 40.1797 316.622 40.1797C318.077 40.1797 319.318 40.6973 320.343 41.7324C321.378 42.7578 321.896 43.998 321.896 45.4531C321.896 46.9082 321.378 48.1533 320.343 49.1885C319.318 50.2139 318.077 50.7266 316.622 50.7266C315.167 50.7266 313.922 50.2139 312.887 49.1885ZM312.14 40.9854C310.909 42.2256 310.294 43.7148 310.294 45.4531C310.294 47.1914 310.909 48.6807 312.14 49.9209C313.38 51.1611 314.874 51.7812 316.622 51.7812C318.37 51.7812 319.859 51.1611 321.09 49.9209C322.33 48.6807 322.95 47.1914 322.95 45.4531C322.95 43.7148 322.33 42.2256 321.09 40.9854C319.859 39.7451 318.37 39.125 316.622 39.125C314.874 39.125 313.38 39.7451 312.14 40.9854ZM310.221 49.1592C309.567 48.0264 309.239 46.791 309.239 45.4531C309.239 44.1152 309.567 42.8799 310.221 41.7471C310.885 40.6143 311.783 39.7207 312.916 39.0664C314.049 38.4023 315.284 38.0703 316.622 38.0703C317.96 38.0703 319.195 38.4023 320.328 39.0664C321.461 39.7207 322.355 40.6143 323.009 41.7471C323.673 42.8799 324.005 44.1152 324.005 45.4531C324.005 46.791 323.673 48.0264 323.009 49.1592C322.355 50.292 321.461 51.1904 320.328 51.8545C319.195 52.5088 317.96 52.8359 316.622 52.8359C315.284 52.8359 314.049 52.5088 312.916 51.8545C311.783 51.1904 310.885 50.292 310.221 49.1592ZM308.844 42.1865C308.404 43.2217 308.185 44.3105 308.185 45.4531C308.185 46.5957 308.404 47.6895 308.844 48.7344C309.293 49.7695 309.894 50.668 310.646 51.4297C311.407 52.1816 312.306 52.7822 313.341 53.2314C314.386 53.6709 315.48 53.8906 316.622 53.8906C317.765 53.8906 318.854 53.6709 319.889 53.2314C320.934 52.7822 321.832 52.1816 322.584 51.4297C323.346 50.668 323.946 49.7695 324.386 48.7344C324.835 47.6895 325.06 46.5957 325.06 45.4531C325.06 44.3105 324.835 43.2217 324.386 42.1865C323.946 41.1416 323.346 40.2432 322.584 39.4912C321.832 38.7295 320.934 38.1289 319.889 37.6895C318.854 37.2402 317.765 37.0156 316.622 37.0156C315.48 37.0156 314.386 37.2402 313.341 37.6895C312.306 38.1289 311.407 38.7295 310.646 39.4912C309.894 40.2432 309.293 41.1416 308.844 42.1865ZM307.877 49.1445C307.379 47.9727 307.13 46.7422 307.13 45.4531C307.13 44.1641 307.379 42.9336 307.877 41.7617C308.385 40.5898 309.059 39.584 309.899 38.7441C310.748 37.8945 311.759 37.2207 312.931 36.7227C314.103 36.2148 315.333 35.9609 316.622 35.9609C317.911 35.9609 319.142 36.2148 320.314 36.7227C321.485 37.2207 322.491 37.8945 323.331 38.7441C324.181 39.584 324.855 40.5898 325.353 41.7617C325.86 42.9336 326.114 44.1641 326.114 45.4531C326.114 46.7422 325.86 47.9727 325.353 49.1445C324.855 50.3164 324.181 51.3271 323.331 52.1768C322.491 53.0166 321.485 53.6904 320.314 54.1982C319.142 54.6963 317.911 54.9453 316.622 54.9453C315.333 54.9453 314.103 54.6963 312.931 54.1982C311.759 53.6904 310.748 53.0166 309.899 52.1768C309.059 51.3271 308.385 50.3164 307.877 49.1445ZM306.91 41.3662C306.354 42.665 306.075 44.0273 306.075 45.4531C306.075 46.8789 306.354 48.2461 306.91 49.5547C307.467 50.8535 308.214 51.9766 309.151 52.9238C310.099 53.8613 311.222 54.6084 312.521 55.165C313.829 55.7217 315.196 56 316.622 56C318.048 56 319.41 55.7217 320.709 55.165C322.018 54.6084 323.141 53.8613 324.078 52.9238C325.026 51.9766 325.777 50.8535 326.334 49.5547C326.891 48.2461 327.169 46.8789 327.169 45.4531C327.169 44.0273 326.891 42.665 326.334 41.3662C325.777 40.0576 325.026 38.9346 324.078 37.9971C323.141 37.0498 322.018 36.2979 320.709 35.7412C319.41 35.1846 318.048 34.9062 316.622 34.9062C315.196 34.9062 313.829 35.1846 312.521 35.7412C311.222 36.2979 310.099 37.0498 309.151 37.9971C308.214 38.9346 307.467 40.0576 306.91 41.3662ZM305.943 49.9648C305.328 48.5293 305.021 47.0254 305.021 45.4531C305.021 43.8809 305.328 42.3818 305.943 40.9561C306.559 39.5205 307.384 38.2852 308.419 37.25C309.454 36.2148 310.685 35.3896 312.11 34.7744C313.546 34.1592 315.05 33.8516 316.622 33.8516C318.194 33.8516 319.693 34.1592 321.119 34.7744C322.555 35.3896 323.79 36.2148 324.825 37.25C325.86 38.2852 326.686 39.5205 327.301 40.9561C327.916 42.3818 328.224 43.8809 328.224 45.4531C328.224 47.0254 327.916 48.5293 327.301 49.9648C326.686 51.3906 325.86 52.6211 324.825 53.6562C323.79 54.6914 322.555 55.5166 321.119 56.1318C319.693 56.7471 318.194 57.0547 316.622 57.0547C315.05 57.0547 313.546 56.7471 312.11 56.1318C310.685 55.5166 309.454 54.6914 308.419 53.6562C307.384 52.6211 306.559 51.3906 305.943 49.9648ZM348.205 42.4795C347.385 43.2998 346.975 44.291 346.975 45.4531C346.975 46.6152 347.385 47.6113 348.205 48.4414C349.035 49.2617 350.032 49.6719 351.194 49.6719C352.356 49.6719 353.347 49.2617 354.167 48.4414C354.997 47.6113 355.412 46.6152 355.412 45.4531C355.412 44.291 354.997 43.2998 354.167 42.4795C353.347 41.6494 352.356 41.2344 351.194 41.2344C350.032 41.2344 349.035 41.6494 348.205 42.4795ZM347.458 49.1885C346.433 48.1533 345.92 46.9082 345.92 45.4531C345.92 43.998 346.433 42.7578 347.458 41.7324C348.493 40.6973 349.739 40.1797 351.194 40.1797C352.649 40.1797 353.889 40.6973 354.914 41.7324C355.95 42.7578 356.467 43.998 356.467 45.4531C356.467 46.9082 355.95 48.1533 354.914 49.1885C353.889 50.2139 352.649 50.7266 351.194 50.7266C349.739 50.7266 348.493 50.2139 347.458 49.1885ZM346.711 40.9854C345.481 42.2256 344.866 43.7148 344.866 45.4531C344.866 47.1914 345.481 48.6807 346.711 49.9209C347.951 51.1611 349.446 51.7812 351.194 51.7812C352.942 51.7812 354.431 51.1611 355.661 49.9209C356.902 48.6807 357.522 47.1914 357.522 45.4531C357.522 43.7148 356.902 42.2256 355.661 40.9854C354.431 39.7451 352.942 39.125 351.194 39.125C349.446 39.125 347.951 39.7451 346.711 40.9854ZM344.792 49.1592C344.138 48.0264 343.811 46.791 343.811 45.4531C343.811 44.1152 344.138 42.8799 344.792 41.7471C345.456 40.6143 346.355 39.7207 347.488 39.0664C348.62 38.4023 349.856 38.0703 351.194 38.0703C352.532 38.0703 353.767 38.4023 354.9 39.0664C356.033 39.7207 356.926 40.6143 357.58 41.7471C358.244 42.8799 358.576 44.1152 358.576 45.4531C358.576 46.791 358.244 48.0264 357.58 49.1592C356.926 50.292 356.033 51.1904 354.9 51.8545C353.767 52.5088 352.532 52.8359 351.194 52.8359C349.856 52.8359 348.62 52.5088 347.488 51.8545C346.355 51.1904 345.456 50.292 344.792 49.1592ZM343.415 42.1865C342.976 43.2217 342.756 44.3105 342.756 45.4531C342.756 46.5957 342.976 47.6895 343.415 48.7344C343.865 49.7695 344.465 50.668 345.217 51.4297C345.979 52.1816 346.877 52.7822 347.912 53.2314C348.957 53.6709 350.051 53.8906 351.194 53.8906C352.336 53.8906 353.425 53.6709 354.46 53.2314C355.505 52.7822 356.404 52.1816 357.156 51.4297C357.917 50.668 358.518 49.7695 358.957 48.7344C359.407 47.6895 359.631 46.5957 359.631 45.4531C359.631 44.3105 359.407 43.2217 358.957 42.1865C358.518 41.1416 357.917 40.2432 357.156 39.4912C356.404 38.7295 355.505 38.1289 354.46 37.6895C353.425 37.2402 352.336 37.0156 351.194 37.0156C350.051 37.0156 348.957 37.2402 347.912 37.6895C346.877 38.1289 345.979 38.7295 345.217 39.4912C344.465 40.2432 343.865 41.1416 343.415 42.1865ZM342.449 49.1445C341.951 47.9727 341.701 46.7422 341.701 45.4531C341.701 44.1641 341.951 42.9336 342.449 41.7617C342.956 40.5898 343.63 39.584 344.47 38.7441C345.32 37.8945 346.33 37.2207 347.502 36.7227C348.674 36.2148 349.905 35.9609 351.194 35.9609C352.483 35.9609 353.713 36.2148 354.885 36.7227C356.057 37.2207 357.063 37.8945 357.903 38.7441C358.752 39.584 359.426 40.5898 359.924 41.7617C360.432 42.9336 360.686 44.1641 360.686 45.4531C360.686 46.7422 360.432 47.9727 359.924 49.1445C359.426 50.3164 358.752 51.3271 357.903 52.1768C357.063 53.0166 356.057 53.6904 354.885 54.1982C353.713 54.6963 352.483 54.9453 351.194 54.9453C349.905 54.9453 348.674 54.6963 347.502 54.1982C346.33 53.6904 345.32 53.0166 344.47 52.1768C343.63 51.3271 342.956 50.3164 342.449 49.1445ZM341.482 41.3662C340.925 42.665 340.647 44.0273 340.647 45.4531C340.647 46.8789 340.925 48.2461 341.482 49.5547C342.038 50.8535 342.785 51.9766 343.723 52.9238C344.67 53.8613 345.793 54.6084 347.092 55.165C348.401 55.7217 349.768 56 351.194 56C352.619 56 353.982 55.7217 355.281 55.165C356.589 54.6084 357.712 53.8613 358.65 52.9238C359.597 51.9766 360.349 50.8535 360.906 49.5547C361.462 48.2461 361.741 46.8789 361.741 45.4531C361.741 44.0273 361.462 42.665 360.906 41.3662C360.349 40.0576 359.597 38.9346 358.65 37.9971C357.712 37.0498 356.589 36.2979 355.281 35.7412C353.982 35.1846 352.619 34.9062 351.194 34.9062C349.768 34.9062 348.401 35.1846 347.092 35.7412C345.793 36.2979 344.67 37.0498 343.723 37.9971C342.785 38.9346 342.038 40.0576 341.482 41.3662ZM340.515 49.9648C339.9 48.5293 339.592 47.0254 339.592 45.4531C339.592 43.8809 339.9 42.3818 340.515 40.9561C341.13 39.5205 341.955 38.2852 342.991 37.25C344.026 36.2148 345.256 35.3896 346.682 34.7744C348.117 34.1592 349.621 33.8516 351.194 33.8516C352.766 33.8516 354.265 34.1592 355.691 34.7744C357.126 35.3896 358.362 36.2148 359.397 37.25C360.432 38.2852 361.257 39.5205 361.872 40.9561C362.488 42.3818 362.795 43.8809 362.795 45.4531C362.795 47.0254 362.488 48.5293 361.872 49.9648C361.257 51.3906 360.432 52.6211 359.397 53.6562C358.362 54.6914 357.126 55.5166 355.691 56.1318C354.265 56.7471 352.766 57.0547 351.194 57.0547C349.621 57.0547 348.117 56.7471 346.682 56.1318C345.256 55.5166 344.026 54.6914 342.991 53.6562C341.955 52.6211 341.13 51.3906 340.515 49.9648ZM384.417 45.9658H382.748C380.697 45.9658 379.12 45.5508 378.016 44.7207C376.913 43.8809 376.361 42.7285 376.361 41.2637C376.361 39.8965 377.01 38.7588 378.309 37.8506C379.608 36.9326 381.429 36.4736 383.773 36.4736C385.335 36.4736 386.791 36.6885 388.138 37.1182C389.496 37.5479 390.624 38.1533 391.522 38.9346L390.702 39.5938C389.901 38.9395 388.895 38.4316 387.684 38.0703C386.473 37.709 385.169 37.5283 383.773 37.5283C381.712 37.5283 380.135 37.8799 379.042 38.583C377.958 39.2861 377.416 40.1797 377.416 41.2637C377.416 42.4355 377.86 43.3389 378.749 43.9736C379.647 44.5986 380.98 44.9111 382.748 44.9111H384.359C386.439 44.9111 388.031 45.3311 389.134 46.1709C390.248 47.001 390.804 48.1484 390.804 49.6133C390.804 50.9805 390.155 52.123 388.856 53.041C387.557 53.9492 385.736 54.4033 383.392 54.4033C381.83 54.4033 380.37 54.1885 379.012 53.7588C377.665 53.3291 376.542 52.7236 375.643 51.9424L376.463 51.2832C377.264 51.9375 378.27 52.4453 379.481 52.8066C380.692 53.168 381.996 53.3486 383.392 53.3486C385.453 53.3486 387.025 52.9971 388.109 52.2939C389.203 51.5908 389.75 50.6973 389.75 49.6133C389.75 48.4414 389.3 47.543 388.402 46.918C387.513 46.2832 386.185 45.9658 384.417 45.9658ZM384.417 48.0752H382.748C380.033 48.0752 377.938 47.46 376.463 46.2295C374.989 44.9893 374.251 43.334 374.251 41.2637C374.251 40.3164 374.461 39.4277 374.881 38.5977C375.301 37.7676 375.902 37.04 376.683 36.415C377.474 35.7803 378.48 35.2822 379.701 34.9209C380.921 34.5498 382.279 34.3643 383.773 34.3643C385.658 34.3643 387.42 34.6523 389.061 35.2285C390.702 35.7949 392.069 36.5908 393.163 37.6162L392.313 38.2461C391.317 37.3477 390.072 36.6543 388.578 36.166C387.083 35.668 385.482 35.4189 383.773 35.4189C381.136 35.4189 379.066 35.9756 377.562 37.0889C376.058 38.2021 375.306 39.5938 375.306 41.2637C375.306 43.0312 375.951 44.4326 377.24 45.4678C378.529 46.5029 380.365 47.0205 382.748 47.0205H384.359C387.25 47.0205 388.695 47.8848 388.695 49.6133C388.695 50.3945 388.25 51.0391 387.362 51.5469C386.483 52.0449 385.16 52.2939 383.392 52.2939C382.152 52.2939 381 52.1523 379.935 51.8691C378.871 51.5762 377.992 51.1611 377.298 50.624L378.133 49.9795C379.354 50.8193 381.107 51.2393 383.392 51.2393C384.857 51.2393 385.931 51.0879 386.615 50.7852C387.298 50.4824 387.64 50.0918 387.64 49.6133C387.64 49.0566 387.401 48.6611 386.922 48.4268C386.444 48.1924 385.609 48.0752 384.417 48.0752ZM384.417 43.8564H382.748C379.896 43.8564 378.47 42.9922 378.47 41.2637C378.47 40.4824 378.91 39.8428 379.789 39.3447C380.677 38.8369 382.005 38.583 383.773 38.583C385.013 38.583 386.166 38.7295 387.23 39.0225C388.294 39.3057 389.173 39.7158 389.867 40.2529L389.032 40.8975C387.811 40.0576 386.058 39.6377 383.773 39.6377C382.308 39.6377 381.234 39.7891 380.55 40.0918C379.867 40.3945 379.525 40.7852 379.525 41.2637C379.525 41.8203 379.764 42.2158 380.243 42.4502C380.721 42.6846 381.556 42.8018 382.748 42.8018H384.417C387.132 42.8018 389.227 43.4219 390.702 44.6621C392.176 45.8926 392.914 47.543 392.914 49.6133C392.914 50.5605 392.704 51.4492 392.284 52.2793C391.864 53.1094 391.258 53.8418 390.467 54.4766C389.686 55.1016 388.685 55.5996 387.464 55.9707C386.244 56.332 384.886 56.5127 383.392 56.5127C381.507 56.5127 379.745 56.2295 378.104 55.6631C376.463 55.0869 375.096 54.2861 374.002 53.2607L374.852 52.6309C375.848 53.5293 377.093 54.2275 378.587 54.7256C380.082 55.2139 381.683 55.458 383.392 55.458C386.029 55.458 388.099 54.9014 389.603 53.7881C391.107 52.6748 391.859 51.2832 391.859 49.6133C391.859 47.8457 391.214 46.4443 389.925 45.4092C388.636 44.374 386.8 43.8564 384.417 43.8564ZM408.515 40.751H409.57V56H408.515V40.751ZM404.297 35.9609V34.9062H420.117V35.9609H404.297ZM404.297 38.0703V37.0156H420.117V38.0703H404.297ZM404.297 40.1797V39.125H420.117V40.1797H404.297ZM414.843 40.751H415.898V56H414.843V40.751ZM412.734 40.751H413.789V56H412.734V40.751ZM410.625 40.751H411.679V56H410.625V40.751Z" fill="white"/>
<g filter="url(#filter0_d_109_2)">
<path d="M451.217 69H17.704L31.9538 43.4876L32.2255 43.0014L31.955 42.5144L17.783 17H451.296L437.046 42.5124L436.775 42.9986L437.045 43.4856L451.217 69Z" stroke="#53C6CD" stroke-width="2" shape-rendering="crispEdges"/>
</g>
<defs>
<filter id="filter0_d_109_2" x="0" y="0" width="469" height="86" filterUnits="userSpaceOnUse" color-interpolation-filters="sRGB">
<feFlood flood-opacity="0" result="BackgroundImageFix"/>
<feColorMatrix in="SourceAlpha" type="matrix" values="0 0 0 0 0 0 0 0 0 0 0 0 0 0 0 0 0 0 127 0" result="hardAlpha"/>
<feOffset/>
<feGaussianBlur stdDeviation="8"/>
<feComposite in2="hardAlpha" operator="out"/>
<feColorMatrix type="matrix" values="0 0 0 0 0.32549 0 0 0 0 0.776471 0 0 0 0 0.803922 0 0 0 1 0"/>
<feBlend mode="normal" in2="BackgroundImageFix" result="effect1_dropShadow_109_2"/>
<feBlend mode="normal" in="SourceGraphic" in2="effect1_dropShadow_109_2" result="shape"/>
</filter>
</defs>
</svg>
