<svg width="162" height="77" viewBox="0 0 162 77" fill="none" xmlns="http://www.w3.org/2000/svg">
<g filter="url(#filter0_d_128_10)">
<path d="M26 16.75H132.488L145.13 37.8195L132.48 59.7466H26C20.8914 59.7466 16.75 55.6053 16.75 50.4966V26C16.75 20.8914 20.8914 16.75 26 16.75Z" stroke="#53C6CD" stroke-width="1.5" shape-rendering="crispEdges"/>
</g>
<path d="M42.9388 43V32.6328H46.3919V43H42.9388ZM46.9231 41.5312V36.4922L49.345 32.6406L52.9388 32.6328L46.9231 41.5312ZM53.1028 43H49.3684L48.1966 40.5859L50.2434 37.5156L53.1028 43ZM61.0891 43V36.7734H56.175V35.7422L57.2141 34.7031H62.3938L64.4641 36.7734V43H61.0891ZM60.5422 38.1719V39.6094H58.7609V41.0625H60.5422V41.9766L59.5109 43H56.8703L55.4797 41.6328V39.5547L56.8703 38.1719H60.5422ZM72.7316 45.8906H69.4191L73.6222 34.7031H76.9425L72.7316 45.8906ZM67.1847 34.7031H70.63L71.7941 38.0781L70.2472 42.3047L67.1847 34.7031ZM79.7412 34.7031H83.2022V43H79.7412V34.7031ZM90.4697 40.9297H92.7509V43H89.0947L87.0166 40.9297V36.7734H86.3291V34.7031H87.0166V33.8047L90.4697 32.6328V40.9297ZM91.0166 36.7734V34.7031H92.8759V36.7734H91.0166ZM105.7 40.8906H106.997V43H104.341L102.239 40.9297V34.7031L104.341 32.6328H106.997V34.7344H105.7V40.8906ZM108.864 34.7344H107.544V32.6328H110.223L112.317 34.7031V40.9297L110.223 43H107.544V40.8906H108.864V34.7344ZM120.897 43H117.835L115.897 41.0625V31.5391H119.35V40.9297H120.897V43Z" fill="white"/>
<defs>
<filter id="filter0_d_128_10" x="0" y="0" width="162" height="76.4966" filterUnits="userSpaceOnUse" color-interpolation-filters="sRGB">
<feFlood flood-opacity="0" result="BackgroundImageFix"/>
<feColorMatrix in="SourceAlpha" type="matrix" values="0 0 0 0 0 0 0 0 0 0 0 0 0 0 0 0 0 0 127 0" result="hardAlpha"/>
<feOffset/>
<feGaussianBlur stdDeviation="8"/>
<feComposite in2="hardAlpha" operator="out"/>
<feColorMatrix type="matrix" values="0 0 0 0 0.32549 0 0 0 0 0.776471 0 0 0 0 0.803922 0 0 0 1 0"/>
<feBlend mode="normal" in2="BackgroundImageFix" result="effect1_dropShadow_128_10"/>
<feBlend mode="normal" in="SourceGraphic" in2="effect1_dropShadow_128_10" result="shape"/>
</filter>
</defs>
</svg>
