<svg width="162" height="77" viewBox="0 0 162 77" fill="none" xmlns="http://www.w3.org/2000/svg">
<g filter="url(#filter0_d_128_11)">
<path d="M136 16.75H29.5119L16.8702 37.8195L29.5204 59.7466H136C141.109 59.7466 145.25 55.6053 145.25 50.4966V26C145.25 20.8914 141.109 16.75 136 16.75Z" stroke="#53C6CD" stroke-width="1.5" shape-rendering="crispEdges"/>
</g>
<path d="M42.5159 40.9297H45.4769V43H41.1331L39.0628 40.9297V34.7031L41.1331 32.6328H42.5159V40.9297ZM44.3441 37.25H49.0863V43H46.0238V39.3047H44.3441V37.25ZM43.0628 34.7031V32.6328H47.2738L49.0863 34.7031V35.7422H45.6331V34.7031H43.0628ZM52.7522 34.7031H56.2131V43H52.7522V34.7031ZM52.7522 31.4688H56.2131V33.6719H52.7522V31.4688ZM65.4103 36.7734H63.9416V35.8672L65.0978 34.7031H67.1916L68.8713 36.6406V38.7891H65.4103V36.7734ZM59.9338 43V34.7031H63.3869V43H59.9338ZM72.0216 34.7031H75.4825V43H72.0216V34.7031ZM72.0216 31.4688H75.4825V33.6719H72.0216V31.4688ZM81.0078 34.7031H82.3906V37.6328H86.3281L88.125 39.4453V41.0625L86.1953 43H84.6719V39.8672H80.9375L79.1406 38.1406V36.5625L81.0078 34.7031ZM82.5938 41.4766H84.125V43L80.5703 42.9922L79.1328 41.2891V40.625H82.5938V41.4766ZM84.6719 36.2266H82.9375V34.7031H86.6094L87.8438 35.9375V36.875H84.6719V36.2266ZM83.4922 44.7578V43.4844H85.0703V45.3984L83.7031 46.9609H81.2656V44.7578H83.4922ZM100.285 39.7031L96.7694 32.6328H100.16L103.746 39.9453V43H100.285V39.7031ZM103.965 39.2188L102.285 35.8125L103.988 32.6328H107.308L103.965 39.2188ZM114.084 43V36.7734H109.17V35.7422L110.209 34.7031H115.388L117.459 36.7734V43H114.084ZM113.537 38.1719V39.6094H111.756V41.0625H113.537V41.9766L112.506 43H109.865L108.474 41.6328V39.5547L109.865 38.1719H113.537ZM121.101 45.7656V34.7031H124.554V45.7656H121.101ZM126.625 36.7734H125.101V35.7266L126.117 34.7031H128.007L130.086 36.7734V40.9297L128.007 43H125.101V41.0625H126.625V36.7734Z" fill="white"/>
<defs>
<filter id="filter0_d_128_11" x="0" y="0" width="162" height="76.4966" filterUnits="userSpaceOnUse" color-interpolation-filters="sRGB">
<feFlood flood-opacity="0" result="BackgroundImageFix"/>
<feColorMatrix in="SourceAlpha" type="matrix" values="0 0 0 0 0 0 0 0 0 0 0 0 0 0 0 0 0 0 127 0" result="hardAlpha"/>
<feOffset/>
<feGaussianBlur stdDeviation="8"/>
<feComposite in2="hardAlpha" operator="out"/>
<feColorMatrix type="matrix" values="0 0 0 0 0.32549 0 0 0 0 0.776471 0 0 0 0 0.803922 0 0 0 1 0"/>
<feBlend mode="normal" in2="BackgroundImageFix" result="effect1_dropShadow_128_11"/>
<feBlend mode="normal" in="SourceGraphic" in2="effect1_dropShadow_128_11" result="shape"/>
</filter>
</defs>
</svg>
